<svg preserveAspectRatio="none" width="100%" height="100%" overflow="visible" style="display: block;" viewBox="0 0 11 8" fill="none" xmlns="http://www.w3.org/2000/svg">
<path id="Vector" fill-rule="evenodd" clip-rule="evenodd" d="M1.40393 3.25854H1.14537C1.1183 3.25854 1.10477 3.27235 1.10477 3.29995H1.06417V3.34573L1.02356 3.38714V6.7721H1.06417V6.81351H1.10477V6.85492H1.14537L1.19238 6.9007H1.36119C1.36119 6.87018 1.37472 6.85492 1.40179 6.85492H1.4488V6.81351L1.4894 6.7721V3.38714V3.34573C1.4894 3.34573 1.4488 3.34573 1.4488 3.29995L1.40179 3.25854H1.40393ZM1.19238 2.30387H1.45094C1.49154 2.30387 1.53214 2.30387 1.57274 2.25809C1.66035 2.25809 1.70096 2.21668 1.70096 2.21668C1.74156 2.17091 1.78216 2.12949 1.78216 2.0859C1.82917 2.04013 1.82917 1.99872 1.82917 1.95512C1.82917 1.91371 1.82917 1.8723 1.78216 1.82653C1.78216 1.82653 1.74156 1.78075 1.70096 1.73934C1.70096 1.69357 1.61334 1.69357 1.57274 1.65216H1.02356C0.982964 1.69357 0.935953 1.69357 0.895352 1.73934C0.895352 1.78075 0.848341 1.82653 0.848341 1.82653C0.80774 1.8723 0.80774 1.91371 0.80774 1.95512C0.80774 2.0009 0.80774 2.04231 0.848341 2.0859C0.848341 2.13167 0.895352 2.17309 0.895352 2.21668C0.935953 2.21668 0.982964 2.25809 1.02356 2.25809C1.10477 2.30387 1.14537 2.30387 1.19238 2.30387ZM10.8083 1.52138V7.02929C10.8083 7.19931 10.7271 7.37585 10.5904 7.50663C10.5092 7.58946 10.4216 7.63523 10.3404 7.67882C10.2592 7.72024 10.1715 7.72024 10.0818 7.72024H0.67739C0.596189 7.72024 0.514988 7.72024 0.427376 7.67882C0.339764 7.63305 0.258562 7.58946 0.168813 7.50663C0.128213 7.46086 0.087612 7.37585 0.0406007 7.28867C0 7.19931 0 7.11212 0 7.02929V1.52138C0 1.43419 0 1.34919 0.0406007 1.262C0.087612 1.17482 0.128213 1.08981 0.168813 1.04404C0.256425 0.956856 0.337627 0.915443 0.427376 0.87185C0.514988 0.826078 0.596189 0.826078 0.67739 0.826078H0.765002C0.765002 0.784665 0.805603 0.784665 0.805603 0.784665V0.738893V0.69748C0.805603 0.651708 0.805603 0.610295 0.846204 0.566703C0.893215 0.566703 0.893215 0.52529 0.980827 0.479518C1.02143 0.479518 1.06203 0.438105 1.10263 0.438105H1.78002C1.82703 0.438105 1.86763 0.479518 1.95738 0.479518C1.95738 0.52529 1.99798 0.566703 2.03858 0.566703C2.07918 0.612475 2.07918 0.653888 2.07918 0.69748C2.07918 0.725089 2.09485 0.738893 2.12619 0.738893C2.12619 0.769408 2.13973 0.784665 2.16679 0.784665C2.16679 0.812274 2.18033 0.826078 2.2074 0.826078H5.31228C5.35929 0.826078 5.39989 0.784665 5.44049 0.784665C5.44049 0.738893 5.48109 0.738893 5.5281 0.69748L5.5687 0.651708C5.60931 0.610295 5.60931 0.564523 5.65632 0.564523L5.73752 0.392333C5.77812 0.35092 5.82513 0.305148 5.86573 0.263735C5.90633 0.217963 5.99394 0.17655 6.03454 0.132957C6.12216 0.087185 6.16276 0.0457721 6.25037 0.0457721C6.29097 0.0457721 6.37217 0 6.41918 0H7.95132C7.99192 0 8.07313 0.0457721 8.12014 0.0457721C8.20134 0.087185 8.24194 0.087185 8.32955 0.132957C8.37015 0.178729 8.41716 0.220142 8.45776 0.263735C8.53897 0.305148 8.58598 0.35092 8.62658 0.392333L8.66718 0.564523C8.70778 0.564523 8.70778 0.610295 8.75479 0.610295C8.75479 0.651708 8.79539 0.69748 8.79539 0.69748C8.83599 0.738893 8.883 0.738893 8.883 0.784665C8.9236 0.784665 8.9642 0.826078 9.0048 0.826078H10.069C10.2869 0.826078 10.4557 0.915443 10.5775 1.04404C10.6246 1.08981 10.6652 1.17482 10.7122 1.262C10.7528 1.34919 10.7934 1.43419 10.7934 1.52138H10.8083ZM8.59666 5.07635C8.50905 5.34008 8.3381 5.55805 8.16929 5.77165C7.95987 5.94384 7.74191 6.11821 7.4919 6.20322C7.23333 6.29258 6.97691 6.37541 6.72476 6.37541C6.42559 6.37541 6.16917 6.29258 5.91061 6.20322C5.66059 6.11603 5.44263 5.94384 5.27382 5.77165C5.0644 5.55805 4.89345 5.34008 4.80584 5.07635C4.72464 4.81697 4.63703 4.5576 4.63703 4.29822C4.63703 3.99308 4.72464 3.73152 4.80584 3.47214C4.89345 3.21277 5.0644 2.99481 5.27382 2.82262C5.44263 2.60901 5.66059 2.43464 5.91061 2.34528C6.16917 2.25809 6.42559 2.17309 6.72476 2.17309C6.97477 2.17309 7.23333 2.26027 7.4919 2.34528C7.74191 2.43464 7.95987 2.60901 8.16929 2.82262C8.3381 2.99481 8.50905 3.21277 8.59666 3.47214C8.67786 3.73152 8.76547 3.99526 8.76547 4.29822C8.76547 4.5576 8.67786 4.81697 8.59666 5.07635ZM4.2994 3.25854C4.17119 3.55933 4.08357 3.90807 4.08357 4.3004C4.08357 4.64696 4.17119 4.99134 4.2994 5.29649C4.42761 5.64305 4.59856 5.94602 4.84858 6.2054C5.10714 6.42336 5.40417 6.64132 5.70333 6.7721C6.04309 6.9007 6.38072 6.9857 6.72689 6.9857C7.10726 6.9857 7.40428 6.89852 7.74405 6.7721C8.04321 6.64132 8.34024 6.42336 8.5988 6.2054C8.84881 5.94602 9.01976 5.64087 9.18858 5.29649C9.31679 4.99134 9.36594 4.64696 9.36594 4.3004C9.36594 3.91025 9.31893 3.55933 9.18858 3.25854C9.01976 2.9098 8.84881 2.60901 8.5988 2.39105C8.34024 2.13167 8.04321 1.91371 7.74405 1.78293C7.40428 1.65434 7.10726 1.56933 6.72689 1.56933C6.38072 1.56933 6.04309 1.65652 5.70333 1.78293C5.40417 1.91371 5.10714 2.13167 4.84858 2.39105C4.59856 2.60901 4.42761 2.9098 4.2994 3.25854Z" fill="var(--fill-0, white)"/>
</svg>
