<svg preserveAspectRatio="none" width="100%" height="100%" overflow="visible" style="display: block;" viewBox="0 0 19 19" fill="none" xmlns="http://www.w3.org/2000/svg">
<path id="Vector" d="M0.345356 16.0672C-0.115119 16.5277 -0.115119 17.2741 0.345356 17.7346C0.805831 18.1951 1.55243 18.1951 2.0129 17.7346L0.345356 16.0672ZM9.87374 9.87374C10.3342 9.41325 10.3342 8.66678 9.87374 8.20629C9.41325 7.7458 8.66678 7.7458 8.20629 8.20629L9.87374 9.87374ZM8.20629 8.20629C7.7458 8.66678 7.7458 9.41325 8.20629 9.87374C8.66678 10.3342 9.41325 10.3342 9.87374 9.87374L8.20629 8.20629ZM17.7346 2.0129C18.1951 1.55243 18.1951 0.805831 17.7346 0.345356C17.2741 -0.115119 16.5277 -0.115119 16.0672 0.345356L17.7346 2.0129ZM9.87374 8.20629C9.41325 7.7458 8.66678 7.7458 8.20629 8.20629C7.7458 8.66678 7.7458 9.41325 8.20629 9.87374L9.87374 8.20629ZM16.0672 17.7346C16.5277 18.1951 17.2741 18.1951 17.7346 17.7346C18.1951 17.2741 18.1951 16.5277 17.7346 16.0672L16.0672 17.7346ZM8.20629 9.87374C8.66678 10.3342 9.41325 10.3342 9.87374 9.87374C10.3342 9.41325 10.3342 8.66678 9.87374 8.20629L8.20629 9.87374ZM2.0129 0.345356C1.55243 -0.115119 0.805831 -0.115119 0.345356 0.345356C-0.115119 0.805831 -0.115119 1.55243 0.345356 2.0129L2.0129 0.345356ZM2.0129 17.7346L9.87374 9.87374L8.20629 8.20629L0.345356 16.0672L2.0129 17.7346ZM9.87374 9.87374L17.7346 2.0129L16.0672 0.345356L8.20629 8.20629L9.87374 9.87374ZM8.20629 9.87374L16.0672 17.7346L17.7346 16.0672L9.87374 8.20629L8.20629 9.87374ZM9.87374 8.20629L2.0129 0.345356L0.345356 2.0129L8.20629 9.87374L9.87374 8.20629Z" fill="var(--fill-0, white)"/>
</svg>
