<svg width="128" height="110" viewBox="0 0 128 110" fill="none" xmlns="http://www.w3.org/2000/svg">
<path d="M122.182 17.3684H5.81818C4.27558 17.37 2.79659 17.9804 1.70581 19.0658C0.61502 20.1512 0.0015403 21.6229 0 23.1579V40.5263C0.0015403 42.0613 0.61502 43.533 1.70581 44.6184C2.79659 45.7038 4.27558 46.3143 5.81818 46.3158H122.182C123.724 46.3143 125.203 45.7038 126.294 44.6184C127.385 43.533 127.998 42.0613 128 40.5263V23.1579C127.998 21.6229 127.385 20.1512 126.294 19.0658C125.203 17.9804 123.724 17.37 122.182 17.3684ZM122.182 40.5263H5.81818V23.1579H122.182V40.5263ZM122.182 81.0526H5.81818C4.27558 81.0542 2.79659 81.6646 1.70581 82.75C0.61502 83.8354 0.0015403 85.3071 0 86.8421V104.211C0.0015403 105.746 0.61502 107.217 1.70581 108.303C2.79659 109.388 4.27558 109.998 5.81818 110H122.182C123.724 109.998 125.203 109.388 126.294 108.303C127.385 107.217 127.998 105.746 128 104.211V86.8421C127.998 85.3071 127.385 83.8354 126.294 82.75C125.203 81.6646 123.724 81.0542 122.182 81.0526ZM122.182 104.211H5.81818V86.8421H122.182V104.211ZM52.3636 63.6842V69.4737H5.81818V63.6842H52.3636ZM5.81818 0H52.3636V5.78947H5.81818V0Z" fill="white"/>
</svg>
