<svg width="135" height="111" viewBox="0 0 135 111" fill="none" xmlns="http://www.w3.org/2000/svg">
<path d="M0 0V111H135V0H0ZM10.3573 10.3743H124.643V100.626H10.3573V10.3743ZM33.9148 23.403C30.6917 23.403 27.9798 24.4849 25.7822 26.65C23.5846 28.8152 22.4863 31.4868 22.4863 34.6621C22.4863 37.6933 23.5846 40.2898 25.7822 42.4549C27.9798 44.62 30.6917 45.702 33.9148 45.702C36.9915 45.702 39.6273 44.6199 41.825 42.4549C44.0227 40.2899 45.1209 37.6931 45.1209 34.6621C45.1209 31.4868 44.0226 28.8152 41.825 26.65C39.6274 24.4849 36.9915 23.403 33.9148 23.403ZM82.4798 28.8905L56.5494 67.6439L42.7807 56.3848L22.4863 82.3611V89.9428H112.514V59.4857L82.4798 28.8905Z" fill="white"/>
</svg>
