<svg preserveAspectRatio="none" width="100%" height="100%" overflow="visible" style="display: block;" viewBox="0 0 13 9" fill="none" xmlns="http://www.w3.org/2000/svg">
<path id="Vector" fill-rule="evenodd" clip-rule="evenodd" d="M0.869894 6.53062H7.81621V7.45183H0.821138V6.53062H0.869894ZM12.9791 8.77848V1.32665L10.5285 2.54809V3.21527H8.9966V1.88862H7.92142C7.87266 1.83216 7.87266 1.78341 7.87266 1.6859V0.708232C7.87266 0.561967 7.76746 0.359248 7.66225 0.202719C7.56474 0.0975102 7.41077 0 7.25424 0H2.35307C2.19911 0 1.99383 0.0975102 1.88862 0.202719C1.79111 0.356682 1.6859 0.502947 1.6859 0.659477C1.6859 0.862195 1.79111 1.01872 1.88862 1.17269C1.99383 1.2702 2.19911 1.32665 2.35307 1.32665H6.13031C6.23552 1.32665 6.39205 1.37541 6.4408 1.42416C6.53831 1.52937 6.64352 1.62688 6.64352 1.73465L6.59477 1.78341V1.88862H0.513211C0.359248 1.88862 0.261738 1.93737 0.153963 2.04258C0.0487551 2.14009 0 2.2376 0 2.34281V7.75719C0 7.90346 0.0487551 8.00866 0.153963 8.11644C0.202719 8.16519 0.356682 8.21395 0.464456 8.21395H8.9966V6.93605H10.5285V7.55447L12.9791 8.77592V8.77848Z" fill="var(--fill-0, white)"/>
</svg>
