<svg preserveAspectRatio="none" width="100%" height="100%" overflow="visible" style="display: block;" viewBox="0 0 20 20" fill="none" xmlns="http://www.w3.org/2000/svg">
<g id="Search Streamline Unicons Line" clip-path="url(#clip0_4551_35047)">
<path id="Vector" d="M19.7191 18.3065L16.0114 14.6287C17.4506 12.8342 18.1476 10.5564 17.959 8.2638C17.7704 5.9712 16.7106 3.83795 14.9974 2.30266C13.2844 0.767449 11.0481 -0.0530456 8.74862 0.00987966C6.44904 0.0728049 4.26103 1.01439 2.63441 2.64101C1.00779 4.26762 0.0662945 6.45564 0.00336925 8.75513C-0.059556 11.0546 0.760938 13.2909 2.29614 15.004C3.83135 16.7172 5.9646 17.777 8.25729 17.9655C10.5499 18.1541 12.8276 17.4572 14.6222 16.0179L18.3 19.6957C18.3929 19.7893 18.5035 19.8637 18.6253 19.9145C18.747 19.9653 18.8776 19.9914 19.0096 19.9914C19.1416 19.9914 19.2721 19.9653 19.394 19.9145C19.5157 19.8637 19.6262 19.7893 19.7191 19.6957C19.8992 19.5093 20 19.2603 20 19.0012C20 18.7421 19.8992 18.4928 19.7191 18.3065ZM9.01554 16.0179C7.63187 16.0179 6.27931 15.6076 5.1288 14.8389C3.97838 14.0702 3.08169 12.9776 2.55218 11.6993C2.02268 10.421 1.88415 9.01423 2.15414 7.65726C2.42404 6.3002 3.09036 5.0536 4.06868 4.07528C5.04708 3.09687 6.2936 2.43055 7.65066 2.16065C9.00772 1.89066 10.4144 2.02927 11.6928 2.55878C12.9711 3.0882 14.0636 3.98489 14.8324 5.1354C15.6011 6.28582 16.0114 7.63838 16.0114 9.02205C16.0114 10.8775 15.2743 12.6569 13.9623 13.9689C12.6503 15.2808 10.8709 16.0179 9.01554 16.0179Z" fill="var(--fill-0, white)"/>
</g>
<defs>
<clipPath id="clip0_4551_35047">
<rect width="20" height="20" fill="white"/>
</clipPath>
</defs>
</svg>
