<svg width="17" height="20" viewBox="0 0 17 20" fill="none" xmlns="http://www.w3.org/2000/svg">
<path fill-rule="evenodd" clip-rule="evenodd" d="M10.101 3.33333C10.101 1.49238 11.5708 0 13.3838 0C15.1969 0 16.6667 1.49238 16.6667 3.33333C16.6667 5.17428 15.1969 6.66667 13.3838 6.66667C12.4683 6.66667 11.641 6.28596 11.0462 5.67347L6.50167 8.8295C6.54363 9.0425 6.56569 9.2625 6.56569 9.4872C6.56569 9.9322 6.47941 10.3576 6.32313 10.7464L11.3062 14.0858C11.8718 13.6161 12.5954 13.3333 13.3838 13.3333C15.1969 13.3333 16.6667 14.8257 16.6667 16.6667C16.6667 18.5076 15.1969 20 13.3838 20C11.5708 20 10.101 18.5076 10.101 16.6667C10.101 16.1845 10.2022 15.7255 10.384 15.3111L5.44125 11.9987C4.86467 12.5098 4.10941 12.8205 3.28282 12.8205C1.46977 12.8205 0 11.3281 0 9.4872C0 7.64623 1.46977 6.15385 3.28282 6.15385C4.32539 6.15385 5.25346 6.64725 5.85436 7.41518L10.2587 4.35642C10.1563 4.03359 10.101 3.6896 10.101 3.33333Z" fill="white"/>
</svg>
